<svg xmlns="http://www.w3.org/2000/svg" xmlns:xlink="http://www.w3.org/1999/xlink" viewBox="0 0 236.6 218.43"><defs><style>.cls-1{isolation:isolate;}.cls-2,.cls-3,.cls-4{fill:none;stroke-linecap:round;stroke-miterlimit:10;stroke-width:11px;}.cls-2{stroke:url(#linear-gradient);}.cls-3{stroke:url(#New_Gradient_Swatch_14);}.cls-4{stroke:url(#New_Gradient_Swatch_1);}.cls-5{fill:#42526e;}.cls-6{fill:#ff5630;}.cls-10,.cls-7,.cls-8{mix-blend-mode:multiply;}.cls-7{fill:url(#linear-gradient-2);}.cls-8{fill:url(#linear-gradient-3);}.cls-9{fill:#0065ff;}.cls-10{fill:url(#linear-gradient-4);}</style><linearGradient id="linear-gradient" y1="167.87" x2="191.56" y2="167.87" gradientUnits="userSpaceOnUse"><stop offset="0" stop-color="#505f79"/><stop offset="1" stop-color="#344563"/></linearGradient><linearGradient id="New_Gradient_Swatch_14" x1="112.83" y1="131.72" x2="236.6" y2="131.72" gradientUnits="userSpaceOnUse"><stop offset="0" stop-color="#0052cc"/><stop offset="1" stop-color="#2684ff"/></linearGradient><linearGradient id="New_Gradient_Swatch_1" x1="45.06" y1="86.69" x2="168.88" y2="86.69" gradientUnits="userSpaceOnUse"><stop offset="0" stop-color="#de350b"/><stop offset="1" stop-color="#ff7452"/></linearGradient><linearGradient id="linear-gradient-2" x1="3447.93" y1="-918.79" x2="3451.4" y2="-1032.76" gradientTransform="translate(-572.38 3704.29) rotate(-64.34)" gradientUnits="userSpaceOnUse"><stop offset="0.31" stop-color="#c1c7d0" stop-opacity="0"/><stop offset="1" stop-color="#c1c7d0"/></linearGradient><linearGradient id="linear-gradient-3" x1="3506.6" y1="-796.66" x2="3510.07" y2="-910.63" xlink:href="#linear-gradient-2"/><linearGradient id="linear-gradient-4" x1="3581.68" y1="-906.82" x2="3585.16" y2="-1020.79" xlink:href="#linear-gradient-2"/></defs><title>Software-Webhooks</title><g class="cls-1"><g id="Layer_2" data-name="Layer 2"><g id="Software"><path class="cls-2" d="M186.06,167.87H117.72A27.58,27.58,0,0,0,92.24,185a45.06,45.06,0,1,1-41.68-62.19"/><path class="cls-3" d="M118.33,50.52l34.15,59.18a27.59,27.59,0,0,0,27.58,13.51,45.06,45.06,0,1,1-33,67.19"/><path class="cls-4" d="M50.56,167.87l34.18-59.16a27.59,27.59,0,0,0-2.09-30.64,45.06,45.06,0,1,1,74.7-5"/><path class="cls-5" d="M186.06,199.66a31.79,31.79,0,1,1,31.79-31.79A31.82,31.82,0,0,1,186.06,199.66Z"/><g id="_Group_" data-name="&lt;Group&gt;"><path class="cls-6" d="M49.56,199.64a31.79,31.79,0,1,1,32.77-30.77A31.82,31.82,0,0,1,49.56,199.64Z"/></g><path class="cls-7" d="M54.12,180.36a58.9,58.9,0,0,0-1.59-11.27s-2.35-9.44-7.33-16.83a43.89,43.89,0,0,0-11.73-11.17,31.77,31.77,0,0,0,29.28,56.13C58.29,192.44,54.68,186.9,54.12,180.36Z"/><path class="cls-8" d="M189.62,180.36A58.9,58.9,0,0,0,188,169.08s-2.35-9.44-7.33-16.83A43.89,43.89,0,0,0,169,141.08a31.77,31.77,0,0,0,29.28,56.13C193.79,192.44,190.18,186.9,189.62,180.36Z"/><g id="_Group_2" data-name="&lt;Group&gt;"><path class="cls-9" d="M89.9,33.78a32.46,32.46,0,1,1,11.88,44.34A32.49,32.49,0,0,1,89.9,33.78Z"/></g><path class="cls-10" d="M122.23,66.13a58.9,58.9,0,0,0-1.59-11.27s-2.35-9.44-7.33-16.83c-3.37-5-9.06-9.79-15.43-13.48A32.44,32.44,0,0,0,128.77,80.6C125.31,76.39,122.7,71.61,122.23,66.13Z"/></g></g></g></svg>